<svg width="64" height="64" viewBox="0 0 64 64" fill="none" xmlns="http://www.w3.org/2000/svg">
  <rect width="64" height="64" rx="16" fill="#212121"/>
  <path d="M22 18H38C43.5228 18 48 22.4772 48 28C48 31.3137 46.3891 34.2515 43.904 36C46.3891 37.7485 48 40.6863 48 44C48 49.5228 43.5228 54 38 54H22V18Z" fill="#46C038"/>
  <path d="M28 24H38C40.2091 24 42 25.7909 42 28C42 30.2091 40.2091 32 38 32H28V24Z" fill="#FFFFFF"/>
  <path d="M28 40H38C40.2091 40 42 41.7909 42 44C42 46.2091 40.2091 48 38 48H28V40Z" fill="#FFFFFF"/>
</svg>
